<svg width="52" height="52" viewBox="0 0 52 52" fill="none" xmlns="http://www.w3.org/2000/svg">
<path fill-rule="evenodd" clip-rule="evenodd" d="M24.6531 8.2392C23.4015 8.38954 22.9822 8.44976 22.4746 8.55231C14.197 10.2242 8.15956 17.6187 8.15894 26.0857C8.15886 26.9735 8.25098 27.3023 8.5436 27.4586C8.75242 27.5702 43.3546 27.5702 43.5634 27.4586C43.6458 27.4146 43.7711 27.2668 43.8419 27.1301C43.9528 26.9158 43.9641 26.699 43.9237 25.559C43.8271 22.8332 43.2911 20.6568 42.1248 18.254C41.3553 16.6687 39.9614 14.6159 39.3036 14.0992C38.7405 13.6568 37.868 14.2696 38.1197 14.9306C38.1575 15.0301 38.4229 15.399 38.7096 15.7504C40.8582 18.3849 42.1425 21.6789 42.3591 25.1107L42.4143 25.9847H26.0646H9.71492V25.6433C9.71492 25.0452 9.86928 23.7194 10.0369 22.8769C10.6403 19.846 12.0461 17.1282 14.1497 14.9264C15.0911 13.9409 16.0445 13.1256 17.0117 12.4788C21.4365 9.52016 27.1534 8.92797 32.1126 10.9146C32.6423 11.1267 33.1774 11.3003 33.3019 11.3003C33.84 11.3003 34.1723 10.7694 33.9567 10.2541C33.8572 10.0165 33.7483 9.93001 33.2721 9.71083C32.0121 9.13091 30.2782 8.629 28.6988 8.3869C27.9209 8.26772 25.2332 8.16959 24.6531 8.2392ZM36.0059 11.643C35.848 11.6948 35.6892 11.828 35.5971 11.986C35.4667 12.2098 35.4586 12.2846 35.5372 12.5465C35.649 12.9189 35.8768 13.0873 36.269 13.0873C36.9183 13.0873 37.2511 12.3591 36.8301 11.8593C36.6025 11.5893 36.3624 11.5263 36.0059 11.643ZM19.6045 13.0881C18.273 13.5664 17.4201 15.007 17.4201 16.7778C17.4201 18.4058 18.1418 19.7513 19.3401 20.3572C19.753 20.566 19.8582 20.5849 20.6073 20.5849C21.3188 20.5849 21.4691 20.561 21.772 20.3998C22.7503 19.879 23.0232 19.3635 22.5915 18.8512C22.283 18.4851 22.0621 18.4738 21.4519 18.7931C20.4828 19.3 19.7162 19.0838 19.2641 18.1763C18.896 17.4375 18.896 16.1181 19.2641 15.3793C19.688 14.5285 20.4418 14.2764 21.3377 14.686C21.8447 14.9179 22.1225 14.8939 22.4047 14.594C22.5351 14.4553 22.5878 14.3083 22.5878 14.0826C22.5878 13.8132 22.5441 13.7281 22.2969 13.5147C21.6427 12.9499 20.4953 12.7681 19.6045 13.0881ZM25.9353 13.115C25.4226 13.3534 24.8752 13.9646 24.7062 14.4874C24.5982 14.8212 24.5753 15.2229 24.5753 16.7778C24.5753 18.9855 24.6257 19.2382 25.1908 19.866C25.6813 20.4108 26.1631 20.6225 26.9094 20.6213C27.8536 20.6198 28.5399 20.1992 28.9973 19.3418C29.2042 18.954 29.2046 18.9497 29.2288 16.945C29.2574 14.5829 29.2125 14.3391 28.6297 13.6918C28.1379 13.1455 27.6568 12.9335 26.9094 12.9335C26.461 12.9335 26.2353 12.9755 25.9353 13.115ZM27.4302 14.6733L27.6485 14.8609V16.7778V18.6948L27.4302 18.8824C27.1341 19.1367 26.6846 19.1367 26.3885 18.8824L26.1702 18.6948V16.7778V14.8609L26.3885 14.6733C26.5383 14.5446 26.7017 14.4858 26.9094 14.4858C27.117 14.4858 27.2804 14.5446 27.4302 14.6733ZM14.4934 17.0444C14.2681 17.1395 13.9973 17.4783 13.4787 18.3137C12.6777 19.6038 12.0664 21.0736 11.6937 22.605C11.4337 23.6734 11.4421 23.9536 11.7429 24.2415L11.9812 24.4697L15.1856 24.4941C16.948 24.5075 18.5394 24.4965 18.7221 24.4697C18.9048 24.4429 19.1498 24.3387 19.2667 24.2384C19.4418 24.0879 19.4792 23.9918 19.4792 23.6927C19.4792 23.3913 19.4421 23.2978 19.2609 23.1421L19.0426 22.9546H16.1293C14.0257 22.9546 13.216 22.9304 13.216 22.8674C13.216 22.8193 13.3397 22.4085 13.4907 21.9544C13.8318 20.9292 14.4654 19.627 15.0456 18.7591C15.5961 17.9354 15.6573 17.6363 15.345 17.2937C15.1081 17.0338 14.7599 16.9319 14.4934 17.0444ZM37.0539 17.0453C36.9636 17.0833 36.8114 17.2135 36.7159 17.3347C36.4624 17.6558 36.5412 17.9807 37.0615 18.7591C37.6521 19.6428 38.2823 20.9428 38.617 21.9684C38.7677 22.4302 38.891 22.8411 38.891 22.8813C38.891 22.9238 38.4296 22.9546 37.7958 22.9546H36.7005L36.4634 23.1914C36.2532 23.4014 36.2312 23.4653 36.2701 23.7546C36.325 24.1635 36.5859 24.4023 37.0545 24.4725C37.2441 24.5009 38.0128 24.5119 38.7625 24.4969L40.1258 24.4697L40.3642 24.2415C40.665 23.9536 40.6734 23.6734 40.4134 22.605C40.1507 21.5258 39.807 20.5771 39.3159 19.5749C38.8765 18.6785 38.0908 17.4166 37.8287 17.1867C37.6386 17.0199 37.2728 16.953 37.0539 17.0453ZM31.3815 18.1652C29.9683 18.8224 29.5159 21.0122 30.7934 21.0122C31.2318 21.0122 31.4709 20.7873 31.5775 20.2741C31.6837 19.7637 31.9237 19.536 32.3556 19.536C32.9113 19.536 33.2962 20.0925 33.0257 20.5047C32.9587 20.6067 32.4917 21.0387 31.9879 21.4646C31.0942 22.22 30.6532 22.6489 30.2297 23.1743C29.842 23.6554 30.0351 24.2633 30.6279 24.4277C30.998 24.5303 33.7068 24.5321 34.075 24.43C34.4796 24.3177 34.6507 24.0942 34.6507 23.6778C34.6507 23.3927 34.6112 23.2957 34.4324 23.1421C34.2316 22.9696 34.1486 22.9546 33.3969 22.9546C32.8602 22.9546 32.5967 22.9273 32.629 22.8752C32.656 22.8315 32.8768 22.6519 33.1198 22.4762C33.7527 22.0181 34.2889 21.4866 34.4691 21.1382C34.8546 20.3938 34.6966 19.4314 34.0759 18.742C33.5841 18.1957 33.103 17.9837 32.3556 17.9837C31.9072 17.9837 31.6816 18.0257 31.3815 18.1652ZM6.40052 29.4344L6.13599 29.6986V33.0047C6.13599 36.557 6.14322 36.626 6.53628 36.829C6.93907 37.037 7.4265 36.8928 7.59907 36.5146C7.66007 36.381 7.69422 35.7972 7.69835 34.8189L7.70473 33.3269L8.51862 34.9777C9.17823 36.3154 9.37546 36.6506 9.55877 36.7453C10.031 36.9892 10.521 36.8132 10.7226 36.3273C10.7938 36.1557 10.8111 35.2967 10.7915 32.9116C10.766 29.8194 10.7604 29.7188 10.6022 29.506C10.4027 29.2377 9.95875 29.1051 9.68193 29.2311C9.25199 29.4267 9.21589 29.5923 9.23169 31.2973L9.24608 32.8608L8.39538 31.1797C7.86609 30.134 7.46556 29.4366 7.33555 29.3345C7.02286 29.0888 6.71344 29.1219 6.40052 29.4344ZM12.7578 29.2787C12.3692 29.4937 12.3659 29.5245 12.3629 33.0319C12.361 35.4138 12.3857 36.3666 12.4532 36.5146C12.6131 36.865 12.8771 36.9398 13.9552 36.9398C15.0333 36.9398 15.2973 36.865 15.4572 36.5146C15.5795 36.2467 15.5745 36.0468 15.4393 35.7856C15.2882 35.4938 15.0125 35.3858 14.4183 35.3858H13.9163V34.6089V33.8319H14.3818C14.7856 33.8319 14.881 33.802 15.0997 33.6068C15.3086 33.4205 15.3521 33.3254 15.3521 33.055C15.3521 32.7846 15.3086 32.6895 15.0997 32.5032C14.881 32.308 14.7856 32.278 14.3818 32.278H13.9163V31.5011V30.7241H14.4183C15.0125 30.7241 15.2882 30.6162 15.4393 30.3244C15.6475 29.9222 15.5031 29.4354 15.1244 29.2631C14.8352 29.1315 13.0019 29.1436 12.7578 29.2787ZM17.4865 29.2868C17.1143 29.4888 17.0966 29.6435 17.1218 32.4783L17.1451 35.1139L17.3489 35.5479C17.8655 36.6479 18.9546 37.1596 20.0825 36.8321C20.724 36.6458 21.1407 36.2929 21.4632 35.6624L21.7355 35.1301L21.7588 32.4864C21.7758 30.5708 21.7566 29.7813 21.6895 29.6194C21.5908 29.3812 21.2651 29.1702 20.9963 29.1702C20.771 29.1702 20.4067 29.3689 20.325 29.5364C20.2877 29.6128 20.2397 30.8582 20.2183 32.304L20.1794 34.9327L19.9253 35.1593C19.6377 35.4158 19.3344 35.4508 19.0604 35.2591C18.6898 34.9999 18.6623 34.7888 18.6623 32.2065C18.6623 29.6138 18.6437 29.4781 18.262 29.2809C17.9942 29.1426 17.7486 29.1445 17.4865 29.2868ZM23.728 29.2787C23.3598 29.4824 23.2371 29.9301 23.4413 30.3244C23.5899 30.6114 23.8669 30.7241 24.4233 30.7241H24.8865V33.5175C24.8865 36.5221 24.8994 36.629 25.2868 36.829C25.6362 37.0094 25.8869 36.9662 26.178 36.6756L26.4425 36.4114V33.5678V30.7241H26.9132C27.4566 30.7241 27.7737 30.5883 27.9056 30.299C28.0875 29.9003 27.9564 29.4659 27.5983 29.2809C27.3 29.127 24.0057 29.1249 23.728 29.2787ZM29.9522 29.275C29.5632 29.498 29.5603 29.5251 29.5574 33.0319C29.5544 36.5563 29.5617 36.626 29.9549 36.829C30.2809 36.9974 30.5376 36.9629 30.8177 36.7133L31.0718 36.4868L31.1107 35.2177L31.1496 33.9486L31.9641 35.2573C32.8089 36.6148 33.0893 36.9398 33.4157 36.9398C33.9996 36.9398 34.3942 36.3299 34.1354 35.8275C34.0873 35.7342 33.7681 35.2102 33.4262 34.6631C33.0843 34.1161 32.8173 33.6585 32.8329 33.6463C32.8485 33.6341 33.0229 33.5149 33.2206 33.3816C34.392 32.5915 34.5388 30.8843 33.5226 29.8695C32.9626 29.3102 32.6507 29.2146 31.3052 29.1898C30.426 29.1736 30.0923 29.1946 29.9522 29.275ZM38.0596 29.3174C37.9232 29.4028 37.78 29.5358 37.7412 29.6128C37.7025 29.6899 37.2397 31.1889 36.7129 32.944C36.0144 35.2712 35.7694 36.192 35.8078 36.3452C35.9444 36.8885 36.5845 37.1044 37.0502 36.7642C37.1289 36.7067 37.2865 36.3818 37.4003 36.0421L37.6073 35.4247L38.5106 35.4029L39.4141 35.3811L39.5147 35.7525C39.758 36.6496 39.9858 36.9398 40.4471 36.9398C40.8382 36.9398 41.2251 36.5603 41.2251 36.1767C41.2251 36.103 40.7916 34.5975 40.2619 32.8312C39.5048 30.3069 39.2576 29.5787 39.1067 29.428C38.8414 29.1631 38.3831 29.1147 38.0596 29.3174ZM43.1787 29.2787C42.7901 29.4937 42.7868 29.5245 42.7839 33.0319C42.7819 35.4138 42.8066 36.3666 42.8741 36.5146C43.0355 36.8683 43.2953 36.9398 44.4189 36.9398H45.442L45.7065 36.6756C45.9976 36.3849 46.0409 36.1345 45.8602 35.7856C45.7091 35.4938 45.4334 35.3858 44.8393 35.3858H44.3372V32.5925C44.3372 30.5922 44.3108 29.7413 44.2442 29.5954C44.0739 29.222 43.5581 29.0687 43.1787 29.2787ZM32.4022 30.9883C32.7421 31.3277 32.7545 31.6337 32.4425 31.9824C32.2369 32.2122 32.172 32.2357 31.6644 32.2644L31.1107 32.2956V31.5099V30.7241H31.6242C32.1045 30.7241 32.1548 30.7412 32.4022 30.9883ZM38.7198 33.0922C38.814 33.4118 38.891 33.709 38.891 33.7526C38.891 33.7963 38.7159 33.8319 38.502 33.8319C38.288 33.8319 38.113 33.8078 38.113 33.7783C38.113 33.6505 38.4654 32.5111 38.5049 32.5111C38.529 32.5111 38.6256 32.7726 38.7198 33.0922ZM14.6779 38.7188C14.4683 38.9058 14.4255 38.9998 14.4255 39.2739C14.4255 39.5716 14.4634 39.6375 14.8128 39.9489C15.3805 40.4547 16.9113 41.451 17.8676 41.937C20.5372 43.2938 22.9977 43.883 26.0146 43.888C28.2441 43.8916 29.7516 43.6559 31.772 42.9876C33.5884 42.3867 36.176 40.9632 37.3018 39.9452C37.6423 39.6374 37.6816 39.568 37.6816 39.2729C37.6816 39 37.6385 38.9056 37.4292 38.7188L37.1768 38.4937H26.0535H14.9302L14.6779 38.7188ZM34.3356 40.1187C34.1105 40.3355 32.1634 41.2079 31.1901 41.528C27.8198 42.6367 24.4569 42.6581 21.0965 41.5921C20.1894 41.3045 18.3027 40.4733 17.8707 40.1711C17.7087 40.0578 18.3891 40.0476 26.0517 40.0476C31.1138 40.0476 34.3804 40.0756 34.3356 40.1187Z" fill="#212951"/>
</svg>
